<svg xmlns="http://www.w3.org/2000/svg" width="512" height="512"><path d="M112 464H72a8 8 0 000 16h40a8 8 0 000-16zm32 0h-8a8 8 0 000 16h8a8 8 0 000-16zM88 152h256a8 8 0 008-8v-32a8 8 0 00-8-8H88a8 8 0 00-8 8v32a8 8 0 008 8zm8-32h240v16H96zm-8 96h256a8 8 0 008-8v-32a8 8 0 00-8-8H88a8 8 0 00-8 8v32a8 8 0 008 8zm8-32h240v16H96zm-8 96h256a8 8 0 008-8v-32a8 8 0 00-8-8H88a8 8 0 00-8 8v32a8 8 0 008 8zm8-32h240v16H96zm144 48H88a8 8 0 000 16h152a8 8 0 000-16zm-48 24H88a8 8 0 000 16h104a8 8 0 000-16zm-88 40a8 8 0 000-16H88a8 8 0 000 16zm32 0a8 8 0 000-16h-8a8 8 0 000 16z"/><path d="M480 384a96.127 96.127 0 00-88-95.664V80a8 8 0 00-2.343-5.657l-64-64A8 8 0 00320 8H48a8 8 0 00-8 8v480a8 8 0 008 8h336a8 8 0 008-8v-16.336A96.127 96.127 0 00480 384zM328 35.313L364.687 72H328zM56 488V24h256v56a8 8 0 008 8h56v200.336a96 96 0 000 191.328V488zm328-24a80 80 0 1180-80 80.091 80.091 0 01-80 80z"/><path d="M445.657 354.343a8 8 0 00-11.314 0l-51.583 51.583-34.644-20.786a8 8 0 10-8.232 13.72l40 24a8 8 0 009.773-1.2l56-56a8 8 0 000-11.317z"/></svg>