<?xml version="1.0" encoding="utf-8"?><svg xmlns="http://www.w3.org/2000/svg" xmlns:xlink="http://www.w3.org/1999/xlink"><symbol viewBox="0 0 512 512" id="checked" xmlns="http://www.w3.org/2000/svg"><path d="M497.36 69.995c-7.532-7.545-19.753-7.558-27.285-.032L238.582 300.845l-83.522-90.713c-7.217-7.834-19.419-8.342-27.266-1.126-7.841 7.217-8.343 19.425-1.126 27.266l97.126 105.481a19.273 19.273 0 0013.784 6.22c.141.006.277.006.412.006a19.317 19.317 0 0013.623-5.628L497.322 97.286c7.551-7.525 7.564-19.746.038-27.291z"/><path d="M492.703 236.703c-10.658 0-19.296 8.638-19.296 19.297 0 119.883-97.524 217.407-217.407 217.407-119.876 0-217.407-97.524-217.407-217.407 0-119.876 97.531-217.407 217.407-217.407 10.658 0 19.297-8.638 19.297-19.296C275.297 8.638 266.658 0 256 0 114.84 0 0 114.84 0 256c0 141.154 114.84 256 256 256 141.154 0 256-114.846 256-256 0-10.658-8.638-19.297-19.297-19.297z"/></symbol><symbol viewBox="0 0 60 60" id="clock" xmlns="http://www.w3.org/2000/svg"><path d="M30 0C13.458 0 0 13.458 0 30s13.458 30 30 30 30-13.458 30-30S46.542 0 30 0zm0 58C14.561 58 2 45.439 2 30S14.561 2 30 2s28 12.561 28 28-12.561 28-28 28z"/><path d="M31 26.021V15.879a1 1 0 10-2 0v10.142a3.995 3.995 0 00-2.858 2.858H19a1 1 0 100 2h7.142c.447 1.72 2 3 3.858 3 2.206 0 4-1.794 4-4 0-1.859-1.28-3.411-3-3.858zm-1 5.858c-1.103 0-2-.897-2-2s.897-2 2-2 2 .897 2 2-.897 2-2 2zm0-22a1 1 0 001-1v-1a1 1 0 10-2 0v1a1 1 0 001 1zm0 40a1 1 0 00-1 1v1a1 1 0 102 0v-1a1 1 0 00-1-1zm22-21h-1a1 1 0 100 2h1a1 1 0 100-2zm-43 0H8a1 1 0 100 2h1a1 1 0 100-2zm35.849-15.264l-.707.707a.999.999 0 101.414 1.414l.707-.707a.999.999 0 10-1.414-1.414zM14.444 44.021l-.707.707a.999.999 0 101.414 1.414l.707-.707a.999.999 0 10-1.414-1.414zm31.112 0a.999.999 0 10-1.414 1.414l.707.707a.997.997 0 001.414 0 .999.999 0 000-1.414l-.707-.707zM15.151 13.615a.999.999 0 10-1.414 1.414l.707.707a.997.997 0 001.414 0 .999.999 0 000-1.414l-.707-.707z"/></symbol><symbol viewBox="0 0 512 512" id="document" xmlns="http://www.w3.org/2000/svg"><path d="M112 464H72a8 8 0 000 16h40a8 8 0 000-16zm32 0h-8a8 8 0 000 16h8a8 8 0 000-16zM88 152h256a8 8 0 008-8v-32a8 8 0 00-8-8H88a8 8 0 00-8 8v32a8 8 0 008 8zm8-32h240v16H96zm-8 96h256a8 8 0 008-8v-32a8 8 0 00-8-8H88a8 8 0 00-8 8v32a8 8 0 008 8zm8-32h240v16H96zm-8 96h256a8 8 0 008-8v-32a8 8 0 00-8-8H88a8 8 0 00-8 8v32a8 8 0 008 8zm8-32h240v16H96zm144 48H88a8 8 0 000 16h152a8 8 0 000-16zm-48 24H88a8 8 0 000 16h104a8 8 0 000-16zm-88 40a8 8 0 000-16H88a8 8 0 000 16zm32 0a8 8 0 000-16h-8a8 8 0 000 16z"/><path d="M480 384a96.127 96.127 0 00-88-95.664V80a8 8 0 00-2.343-5.657l-64-64A8 8 0 00320 8H48a8 8 0 00-8 8v480a8 8 0 008 8h336a8 8 0 008-8v-16.336A96.127 96.127 0 00480 384zM328 35.313L364.687 72H328zM56 488V24h256v56a8 8 0 008 8h56v200.336a96 96 0 000 191.328V488zm328-24a80 80 0 1180-80 80.091 80.091 0 01-80 80z"/><path d="M445.657 354.343a8 8 0 00-11.314 0l-51.583 51.583-34.644-20.786a8 8 0 10-8.232 13.72l40 24a8 8 0 009.773-1.2l56-56a8 8 0 000-11.317z"/></symbol><symbol viewBox="0 0 490.434 490.433" id="done-tick" xmlns="http://www.w3.org/2000/svg"><path d="M472.003 58.36l-13.132-11.282c-21.798-18.732-54.554-16.644-73.799 4.697L165.39 295.359l-66.312-57.112c-21.775-18.753-54.536-16.707-73.804 4.611l-11.611 12.848a52.934 52.934 0 00-13.595 38.18 52.938 52.938 0 0017.402 36.6l121.553 111.311a52.936 52.936 0 0076.355-4.057l262.245-304.71a52.915 52.915 0 0012.661-38.496 52.92 52.92 0 00-18.281-36.174z"/></symbol><symbol viewBox="0 0 24 24" id="facebook" xmlns="http://www.w3.org/2000/svg"><path d="M18 2h-3a5 5 0 00-5 5v3H7v4h3v8h4v-8h3l1-4h-4V7a1 1 0 011-1h3V2z"/></symbol><symbol viewBox="0 0 24 24" id="instagram" xmlns="http://www.w3.org/2000/svg"><path d="M17.34 5.46a1.2 1.2 0 100 2.4 1.2 1.2 0 000-2.4zm4.6 2.42a7.588 7.588 0 00-.46-2.43 4.94 4.94 0 00-1.16-1.77 4.7 4.7 0 00-1.77-1.15 7.3 7.3 0 00-2.43-.47C15.06 2 14.72 2 12 2s-3.06 0-4.12.06a7.3 7.3 0 00-2.43.47 4.78 4.78 0 00-1.77 1.15 4.7 4.7 0 00-1.15 1.77 7.3 7.3 0 00-.47 2.43C2 8.94 2 9.28 2 12s0 3.06.06 4.12a7.3 7.3 0 00.47 2.43 4.7 4.7 0 001.15 1.77 4.78 4.78 0 001.77 1.15 7.3 7.3 0 002.43.47C8.94 22 9.28 22 12 22s3.06 0 4.12-.06a7.3 7.3 0 002.43-.47 4.7 4.7 0 001.77-1.15 4.85 4.85 0 001.16-1.77c.285-.78.44-1.6.46-2.43 0-1.06.06-1.4.06-4.12s0-3.06-.06-4.12zM20.14 16a5.61 5.61 0 01-.34 1.86 3.06 3.06 0 01-.75 1.15c-.324.33-.717.586-1.15.75a5.61 5.61 0 01-1.86.34c-1 .05-1.37.06-4 .06s-3 0-4-.06a5.73 5.73 0 01-1.94-.3 3.27 3.27 0 01-1.1-.75 3 3 0 01-.74-1.15 5.54 5.54 0 01-.4-1.9c0-1-.06-1.37-.06-4s0-3 .06-4a5.54 5.54 0 01.35-1.9A3 3 0 015 5a3.14 3.14 0 011.1-.8A5.73 5.73 0 018 3.86c1 0 1.37-.06 4-.06s3 0 4 .06a5.61 5.61 0 011.86.34 3.06 3.06 0 011.19.8c.328.307.584.683.75 1.1.222.609.337 1.252.34 1.9.05 1 .06 1.37.06 4s-.01 3-.06 4zM12 6.87A5.13 5.13 0 1017.14 12 5.12 5.12 0 0012 6.87zm0 8.46a3.33 3.33 0 110-6.66 3.33 3.33 0 010 6.66z"/></symbol><symbol viewBox="0 0 492 492" id="left-arrow" xmlns="http://www.w3.org/2000/svg"><path d="M198.608 246.104L382.664 62.04c5.068-5.056 7.856-11.816 7.856-19.024 0-7.212-2.788-13.968-7.856-19.032l-16.128-16.12C361.476 2.792 354.712 0 347.504 0s-13.964 2.792-19.028 7.864L109.328 227.008c-5.084 5.08-7.868 11.868-7.848 19.084-.02 7.248 2.76 14.028 7.848 19.112l218.944 218.932c5.064 5.072 11.82 7.864 19.032 7.864 7.208 0 13.964-2.792 19.032-7.864l16.124-16.12c10.492-10.492 10.492-27.572 0-38.06L198.608 246.104z"/></symbol><symbol viewBox="0 0 480 480" id="patent" xmlns="http://www.w3.org/2000/svg"><path d="M448 24H80c-17.673 0-32 14.327-32 32v256H8a8 8 0 00-8 8c0 17.673 14.327 32 32 32h232v96a8 8 0 0013.656 5.656L320 411.312l42.344 42.344A8 8 0 00368 456a8 8 0 008-8v-96h24c17.673 0 32-14.327 32-32V64h40a8 8 0 008-8c0-17.673-14.327-32-32-32zm-32 32v256h-32v16h29.848A16 16 0 01400 336h-24v-8h-16v100.688l-34.344-34.344a8 8 0 00-11.312 0L280 428.688V328h-16v8H32a16 16 0 01-13.848-8H256v-16H64V56c0-8.837 7.163-16 16-16h340.448A31.675 31.675 0 00416 56zm18.152-8c4.426-7.648 14.214-10.26 21.863-5.833A16.003 16.003 0 01461.848 48h-27.696z"/><path d="M395.416 274.36L385.168 256l10.288-18.344a8 8 0 00-3.64-11.2l-19.096-8.744-2.464-20.88a8 8 0 00-9.496-6.904l-20.624 4.088-14.264-15.448a8.24 8.24 0 00-11.653-.091l-.091.091-14.264 15.448-20.624-4.088a8 8 0 00-9.496 6.904l-2.464 20.88-19.096 8.76a8 8 0 00-3.64 11.2L254.832 256l-10.288 18.344a8 8 0 003.64 11.2l19.096 8.76 2.464 20.896a8 8 0 009.496 6.904l20.624-4.088 14.264 15.448a8 8 0 0011.744 0l14.264-15.448 20.624 4.088a7.887 7.887 0 006.256-1.376 8 8 0 003.2-5.528l2.464-20.88 19.096-8.76a8 8 0 003.64-11.2zm-26.392-14.456l8.232 14.688-15.296 7.016a8 8 0 00-4.608 6.336l-1.968 16.744-16.536-3.272a7.886 7.886 0 00-7.424 2.4L320 316.2l-11.424-12.368a7.998 7.998 0 00-5.872-2.568 7.225 7.225 0 00-1.552.16l-16.536 3.272-1.968-16.744a8 8 0 00-4.608-6.336l-15.296-7.016 8.232-14.688c1.376-2.44 1.409-5.403 0-7.824v.032l-8.232-14.688 15.296-7.016a8 8 0 004.608-6.336l1.968-16.744 16.536 3.272a7.92 7.92 0 007.424-2.4L320 195.8l11.424 12.368a7.88 7.88 0 007.424 2.4l16.536-3.272 1.968 16.744a8 8 0 004.608 6.336l15.296 7.016-8.232 14.688a8.002 8.002 0 000 7.824z"/><path d="M320 216c-22.091 0-40 17.909-40 40 .026 22.08 17.92 39.973 40 40 22.091 0 40-17.909 40-40s-17.909-40-40-40zm0 64c-13.255 0-24-10.745-24-24s10.745-24 24-24 24 10.745 24 24-10.745 24-24 24zM176 72h128v16H176zm-80 48h288v16H96zm0 32h288v16H96zm8 104h104v16H104z"/></symbol><symbol viewBox="0 0 492.004 492.004" id="right-arrow" xmlns="http://www.w3.org/2000/svg"><path d="M382.678 226.804L163.73 7.86C158.666 2.792 151.906 0 144.698 0s-13.968 2.792-19.032 7.86l-16.124 16.12c-10.492 10.504-10.492 27.576 0 38.064L293.398 245.9l-184.06 184.06c-5.064 5.068-7.86 11.824-7.86 19.028 0 7.212 2.796 13.968 7.86 19.04l16.124 16.116c5.068 5.068 11.824 7.86 19.032 7.86s13.968-2.792 19.032-7.86L382.678 265c5.076-5.084 7.864-11.872 7.848-19.088.016-7.244-2.772-14.028-7.848-19.108z"/></symbol><symbol viewBox="0 0 512 512" id="up-arrow" xmlns="http://www.w3.org/2000/svg"><path d="M263.432 3.136c-4.16-4.171-10.914-4.179-15.085-.019l-.019.019-192 192c-4.093 4.237-3.975 10.99.262 15.083 4.134 3.992 10.687 3.992 14.82 0L245.213 36.416v464.917c0 5.891 4.776 10.667 10.667 10.667s10.667-4.776 10.667-10.667V36.416l173.781 173.781c4.093 4.237 10.845 4.355 15.083.262 4.237-4.093 4.354-10.845.262-15.083a10.787 10.787 0 00-.262-.262L263.432 3.136z"/><path d="M447.88 213.333a10.663 10.663 0 01-7.552-3.115L255.88 25.749 71.432 210.219c-4.237 4.093-10.99 3.975-15.083-.262-3.992-4.134-3.992-10.687 0-14.82l192-192c4.165-4.164 10.917-4.164 15.083 0l192 192c4.159 4.172 4.149 10.926-.024 15.085a10.665 10.665 0 01-7.528 3.111z"/><path d="M255.88 512c-5.891 0-10.667-4.776-10.667-10.667V10.667C245.213 4.776 249.989 0 255.88 0s10.667 4.776 10.667 10.667v490.667c-.001 5.89-4.776 10.666-10.667 10.666z"/></symbol></svg>